<?xml version="1.0" encoding="utf-8"?>
<!-- Generator: Adobe Illustrator 24.0.1, SVG Export Plug-In . SVG Version: 6.00 Build 0)  -->
<svg version="1.1" id="Layer_1" xmlns="http://www.w3.org/2000/svg" xmlns:xlink="http://www.w3.org/1999/xlink" x="0px" y="0px"
	 viewBox="0 0 800 300" style="enable-background:new 0 0 800 300;" xml:space="preserve">
<style type="text/css">
	.st0{fill:#00A651;}
</style>
<g>
	<path class="st0" d="M121.2,93.7c-6.05,6.05-12.11,12.11-18.16,18.16c-0.86,0.86-1.72,1.72-2.58,2.58c-2.77,2.77-2.99,7.87,0,10.61
		c3,2.74,7.63,2.97,10.61,0c6.05-6.05,12.11-12.11,18.16-18.16c0.86-0.86,1.72-1.72,2.58-2.58c2.77-2.77,2.99-7.87,0-10.61
		C128.8,90.95,124.17,90.72,121.2,93.7L121.2,93.7z"/>
</g>
<g>
	<path class="st0" d="M122.59,156.13l-75.54,75.54c-2.98,2.98-7.6,2.75-10.61,0c-2.99-2.74-2.77-7.83,0-10.61l0.14-0.14
		c3.41-3.54,6.96-6.96,10.43-10.43l6.39-6.39c0,0,5.49-5.49,0.16-10.82c-5.33-5.33-10.82,0.16-10.82,0.16L26.28,209.9
		c-2.98,2.98-7.61,2.74-10.61,0c-2.99-2.74-2.77-7.83,0-10.61l0.11-0.11c2.55-2.67,5.23-5.23,7.84-7.84l26.09-26.09
		c0,0,5.08-5.08-0.29-10.44c-5.37-5.37-10.44-0.29-10.44-0.29l-22.97,22.97c-2.98,2.98-7.61,2.74-10.61,0c-3-2.73-2.78-7.83,0-10.61
		l0.14-0.14c3.4-3.54,6.95-6.95,10.42-10.42l75.54-75.54c2.98-2.98,7.61-2.74,10.61,0c2.99,2.74,2.78,7.83,0,10.61l-0.14,0.14
		c-3.41,3.54-6.95,6.95-10.43,10.43l-33.99,33.99c0,0-5.08,5.08,0.26,10.47c5.35,5.39,10.47,0.26,10.47,0.26l11.7-11.7
		c2.98-2.98,7.6-2.75,10.61,0c2.99,2.74,2.77,7.83,0,10.61l-0.11,0.11c-2.56,2.66-5.23,5.23-7.84,7.84l-17.81,17.81
		c0,0-3.15,3.15,2.16,8.5c5.3,5.36,8.5,2.16,8.5,2.16l47.06-47.06c2.97-2.97,7.6-2.74,10.61,0c2.99,2.74,2.77,7.83,0,10.61
		l-0.15,0.15C129.61,149.25,126.06,152.66,122.59,156.13z"/>
</g>
<g>
	<path class="st0" d="M158.22,99.36c-6.05,6.05-12.11,12.11-18.16,18.16c-0.86,0.86-1.72,1.72-2.58,2.58
		c-2.77,2.77-2.99,7.87,0,10.61c3,2.74,7.63,2.97,10.61,0c6.05-6.05,12.11-12.11,18.16-18.16c0.86-0.86,1.72-1.72,2.58-2.58
		c2.77-2.77,2.99-7.87,0-10.61C165.82,96.61,161.19,96.38,158.22,99.36L158.22,99.36z"/>
</g>
<g>
	<path class="st0" d="M181.38,222.49c-2.87,2.87-5.73,5.73-8.6,8.6c-6.85,6.85-13.7,13.7-20.55,20.55
		c-8.28,8.28-16.56,16.56-24.85,24.85c-7.18,7.18-14.37,14.37-21.55,21.55c-3.47,3.47-7.02,6.88-10.42,10.42
		c-0.05,0.05-0.1,0.1-0.15,0.15c-2.77,2.77-2.99,7.87,0,10.61c3,2.74,7.63,2.97,10.61,0c2.87-2.87,5.73-5.73,8.6-8.6
		c6.85-6.85,13.7-13.7,20.55-20.55c8.28-8.28,16.56-16.56,24.85-24.85c7.18-7.18,14.37-14.37,21.55-21.55
		c3.47-3.47,7.02-6.88,10.42-10.42c0.05-0.05,0.1-0.1,0.15-0.15c2.77-2.77,2.99-7.87,0-10.61
		C188.98,219.75,184.35,219.52,181.38,222.49L181.38,222.49z"/>
</g>
<g>
	<path class="st0" d="M245.5,158.37c-4.84,4.84-9.69,9.69-14.53,14.53c-7.71,7.71-15.42,15.42-23.14,23.14
		c-1.76,1.76-3.52,3.52-5.29,5.29c-2.77,2.77-2.99,7.87,0,10.61c3,2.74,7.63,2.97,10.61,0c4.84-4.84,9.69-9.69,14.53-14.53
		c7.71-7.71,15.42-15.42,23.14-23.14c1.76-1.76,3.52-3.52,5.29-5.29c2.77-2.77,2.99-7.87,0-10.61
		C253.11,155.62,248.48,155.4,245.5,158.37L245.5,158.37z"/>
</g>
<g>
	<path class="st0" d="M660.1,262.42c8.09-8.09,16.19-16.19,24.28-24.28c1.15-1.15,2.3-2.3,3.44-3.44c3.71-3.71,4.82-9.7,1.79-12.39
		c-3.05-2.7-8.42-2.19-12.39,1.79c-8.09,8.09-16.19,16.19-24.28,24.28c-1.15,1.15-2.3,2.3-3.44,3.44c-3.71,3.71-4.82,9.7-1.79,12.39
		C650.75,266.91,656.12,266.4,660.1,262.42L660.1,262.42z"/>
</g>
<path class="st0" d="M713.12,188.18l75.34-75.34c3.98-3.98,9.35-4.49,12.39-1.79c3.04,2.7,1.92,8.69-1.79,12.39l-0.15,0.15
	c-3.43,3.54-6.99,6.99-10.48,10.48l-35.96,35.96c0,0-7.07,7.15-1.78,12.43c5.29,5.29,12.4-1.82,12.4-1.82l27.38-27.38
	c3.98-3.98,9.35-4.49,12.39-1.79c3.03,2.69,1.93,8.68-1.79,12.39l-0.15,0.15c-2.2,2.28-4.46,4.52-6.72,6.75
	c-5.3,6.22-0.94,11.52-0.94,11.52c3.03,2.69,1.93,8.68-1.79,12.39l-0.15,0.15c-3.43,3.54-6.98,6.98-10.48,10.48l-75.34,75.34
	c-3.97,3.97-9.34,4.49-12.39,1.79c-3.03-2.69-1.92-8.69,1.79-12.39l0.15-0.15c2.26-2.33,4.57-4.62,6.88-6.9
	c5.57-6.56,0.79-11.37,0.79-11.37c-3.03-2.69-1.92-8.69,1.79-12.39l0.15-0.15c3.44-3.55,6.99-6.99,10.48-10.48l26.19-26.19
	c0,0,0.01-0.01,0.02-0.02c0.37-0.37,6.94-7.08,1.75-12.28c-5.35-5.35-12.38,1.69-12.38,1.69l-17.61,17.61
	c-3.98,3.98-9.34,4.49-12.39,1.79c-3.03-2.69-1.92-8.69,1.79-12.39c0.05-0.05,0.11-0.1,0.15-0.15
	C706.08,195.13,709.63,191.67,713.12,188.18z"/>
</svg>
